HIERARCHY
ROOT Root
{
  OFFSET 0.0 0.0 0.0
  CHANNELS 6 Xposition Yposition Zposition Zrotation Yrotation Xrotation
  JOINT Hips
  {
    OFFSET 0.0 100.0 0.0
    CHANNELS 6 Xposition Yposition Zposition Zrotation Yrotation Xrotation
    JOINT Spine1
    {
      OFFSET -0.013727 5.003763 -0.053727
      CHANNELS 3 Zrotation Yrotation Xrotation
      JOINT Spine2
      {
        OFFSET -0.0 7.125301 -0.029825
        CHANNELS 3 Zrotation Yrotation Xrotation
        JOINT Chest
        {
          OFFSET -1e-06 7.550063 -0.815971
          CHANNELS 3 Zrotation Yrotation Xrotation
          JOINT Neck1
          {
            OFFSET -0.181677 26.311295 -0.553348
            CHANNELS 3 Zrotation Yrotation Xrotation
            JOINT Neck2
            {
              OFFSET -3e-06 7.709397 2.302585
              CHANNELS 3 Zrotation Yrotation Xrotation
              JOINT Head
              {
                OFFSET -5e-06 6.128916 1.953709
                CHANNELS 3 Zrotation Yrotation Xrotation
                JOINT HeadEnd
                {
                  OFFSET 0.003598 16.065403 -1.835379
                  CHANNELS 3 Zrotation Yrotation Xrotation
                }
                JOINT Jaw
                {
                  OFFSET 0.002637 0.475592 3.094941
                  CHANNELS 3 Zrotation Yrotation Xrotation
                }
                JOINT LeftEye
                {
                  OFFSET 3.206381 5.380205 7.586883
                  CHANNELS 3 Zrotation Yrotation Xrotation
                }
                JOINT RightEye
                {
                  OFFSET -3.22244 5.361869 7.558234
                  CHANNELS 3 Zrotation Yrotation Xrotation
                }
              }
            }
          }
          JOINT LeftShoulder
          {
            OFFSET 1.621652 23.237164 5.113413
            CHANNELS 3 Zrotation Yrotation Xrotation
            JOINT LeftArm
            {
              OFFSET 14.919846 2e-06 -5.502326
              CHANNELS 3 Zrotation Yrotation Xrotation
              JOINT LeftForeArm
              {
                OFFSET 28.739307 0.0 -0.002588
                CHANNELS 3 Zrotation Yrotation Xrotation
                JOINT LeftHand
                {
                  OFFSET 27.093981 -1e-06 0.002609
                  CHANNELS 3 Zrotation Yrotation Xrotation
                  JOINT LeftHandThumb1
                  {
                    OFFSET 2.276482 -1.392045 3.191413
                    CHANNELS 3 Zrotation Yrotation Xrotation
                    JOINT LeftHandThumb2
                    {
                      OFFSET 4.012836 -1.828127 1.641654
                      CHANNELS 3 Zrotation Yrotation Xrotation
                      JOINT LeftHandThumb3
                      {
                        OFFSET 2.798515 0.0 -3e-06
                        CHANNELS 3 Zrotation Yrotation Xrotation
                        JOINT LeftHandThumbEnd
                        {
                          OFFSET 3.180793 -4e-06 4e-06
                          CHANNELS 3 Zrotation Yrotation Xrotation
                        }
                      }
                    }
                  }
                  JOINT LeftHandIndex1
                  {
                    OFFSET 3.247555 -0.531998 2.296169
                    CHANNELS 3 Zrotation Yrotation Xrotation
                    JOINT LeftHandIndex2
                    {
                      OFFSET 6.364578 0.01206 0.1786
                      CHANNELS 3 Zrotation Yrotation Xrotation
                      JOINT LeftHandIndex3
                      {
                        OFFSET 3.662364 0.0 0.0
                        CHANNELS 3 Zrotation Yrotation Xrotation
                        JOINT LeftHandIndex4
                        {
                          OFFSET 2.329242 4e-06 4e-06
                          CHANNELS 3 Zrotation Yrotation Xrotation
                          JOINT LeftHandIndexEnd
                          {
                            OFFSET 2.759615 -0.180537 -0.113024
                            CHANNELS 3 Zrotation Yrotation Xrotation
                          }
                        }
                      }
                    }
                  }
                  JOINT LeftHandMiddle1
                  {
                    OFFSET 3.163495 0.240981 1.000332
                    CHANNELS 3 Zrotation Yrotation Xrotation
                    JOINT LeftHandMiddle2
                    {
                      OFFSET 6.19078 -0.259278 -1.002548
                      CHANNELS 3 Zrotation Yrotation Xrotation
                      JOINT LeftHandMiddle3
                      {
                        OFFSET 4.35652 -4e-06 -1e-06
                        CHANNELS 3 Zrotation Yrotation Xrotation
                        JOINT LeftHandMiddle4
                        {
                          OFFSET 2.996877 -8e-06 0.0
                          CHANNELS 3 Zrotation Yrotation Xrotation
                          JOINT LeftHandMiddleEnd
                          {
                            OFFSET 2.304287 -0.294569 -0.031741
                            CHANNELS 3 Zrotation Yrotation Xrotation
                          }
                        }
                      }
                    }
                  }
                  JOINT LeftHandRing1
                  {
                    OFFSET 2.882643 -0.053652 -0.322543
                    CHANNELS 3 Zrotation Yrotation Xrotation
                    JOINT LeftHandRing2
                    {
                      OFFSET 5.854541 -0.486202 -1.373841
                      CHANNELS 3 Zrotation Yrotation Xrotation
                      JOINT LeftHandRing3
                      {
                        OFFSET 4.350578 0.0 3e-06
                        CHANNELS 3 Zrotation Yrotation Xrotation
                        JOINT LeftHandRing4
                        {
                          OFFSET 2.651321 7e-06 2e-06
                          CHANNELS 3 Zrotation Yrotation Xrotation
                          JOINT LeftHandRingEnd
                          {
                            OFFSET 1.936105 0.077687 -7.1e-05
                            CHANNELS 3 Zrotation Yrotation Xrotation
                          }
                        }
                      }
                    }
                  }
                  JOINT LeftHandPinky1
                  {
                    OFFSET 2.8655 -0.310005 -1.600378
                    CHANNELS 3 Zrotation Yrotation Xrotation
                    JOINT LeftHandPinky2
                    {
                      OFFSET 5.087849 -1.331141 -1.77123
                      CHANNELS 3 Zrotation Yrotation Xrotation
                      JOINT LeftHandPinky3
                      {
                        OFFSET 3.070974 4e-06 0.0
                        CHANNELS 3 Zrotation Yrotation Xrotation
                        JOINT LeftHandPinky4
                        {
                          OFFSET 1.549672 0.0 1e-06
                          CHANNELS 3 Zrotation Yrotation Xrotation
                          JOINT LeftHandPinkyEnd
                          {
                            OFFSET 1.944893 -0.157802 0.057219
                            CHANNELS 3 Zrotation Yrotation Xrotation
                          }
                        }
                      }
                    }
                  }
                }
              }
            }
          }
          JOINT RightShoulder
          {
            OFFSET -1.380118 23.180309 5.214158
            CHANNELS 3 Zrotation Yrotation Xrotation
            JOINT RightArm
            {
              OFFSET -15.037196 1.2e-05 -5.545604
              CHANNELS 3 Zrotation Yrotation Xrotation
              JOINT RightForeArm
              {
                OFFSET -28.736639 2e-06 -0.002597
                CHANNELS 3 Zrotation Yrotation Xrotation
                JOINT RightHand
                {
                  OFFSET -27.133619 -0.0 0.002613
                  CHANNELS 3 Zrotation Yrotation Xrotation
                  JOINT RightHandThumb1
                  {
                    OFFSET -2.274032 -1.383988 3.163127
                    CHANNELS 3 Zrotation Yrotation Xrotation
                    JOINT RightHandThumb2
                    {
                      OFFSET -4.011429 -1.827466 1.640914
                      CHANNELS 3 Zrotation Yrotation Xrotation
                      JOINT RightHandThumb3
                      {
                        OFFSET -2.794935 -4e-06 -3e-06
                        CHANNELS 3 Zrotation Yrotation Xrotation
                        JOINT RightHandThumbEnd
                        {
                          OFFSET -3.183852 4e-06 1e-06
                          CHANNELS 3 Zrotation Yrotation Xrotation
                        }
                      }
                    }
                  }
                  JOINT RightHandIndex1
                  {
                    OFFSET -3.253266 -0.520057 2.282866
                    CHANNELS 3 Zrotation Yrotation Xrotation
                    JOINT RightHandIndex2
                    {
                      OFFSET -6.341917 0.012471 0.178266
                      CHANNELS 3 Zrotation Yrotation Xrotation
                      JOINT RightHandIndex3
                      {
                        OFFSET -3.654871 -8e-06 -0.0
                        CHANNELS 3 Zrotation Yrotation Xrotation
                        JOINT RightHandIndex4
                        {
                          OFFSET -2.327586 0.0 1e-06
                          CHANNELS 3 Zrotation Yrotation Xrotation
                          JOINT RightHandIndexEnd
                          {
                            OFFSET -2.76179 -0.180656 -0.113078
                            CHANNELS 3 Zrotation Yrotation Xrotation
                          }
                        }
                      }
                    }
                  }
                  JOINT RightHandMiddle1
                  {
                    OFFSET -3.168106 0.246593 1.00103
                    CHANNELS 3 Zrotation Yrotation Xrotation
                    JOINT RightHandMiddle2
                    {
                      OFFSET -6.180828 -0.258836 -1.000895
                      CHANNELS 3 Zrotation Yrotation Xrotation
                      JOINT RightHandMiddle3
                      {
                        OFFSET -4.348901 0.0 -0.0
                        CHANNELS 3 Zrotation Yrotation Xrotation
                        JOINT RightHandMiddle4
                        {
                          OFFSET -3.00024 -4e-06 -2e-06
                          CHANNELS 3 Zrotation Yrotation Xrotation
                          JOINT RightHandMiddleEnd
                          {
                            OFFSET -2.30252 -0.29437 -0.031706
                            CHANNELS 3 Zrotation Yrotation Xrotation
                          }
                        }
                      }
                    }
                  }
                  JOINT RightHandRing1
                  {
                    OFFSET -2.88569 -0.067952 -0.308858
                    CHANNELS 3 Zrotation Yrotation Xrotation
                    JOINT RightHandRing2
                    {
                      OFFSET -5.854198 -0.48613 -1.373731
                      CHANNELS 3 Zrotation Yrotation Xrotation
                      JOINT RightHandRing3
                      {
                        OFFSET -4.33881 -4e-06 -0.0
                        CHANNELS 3 Zrotation Yrotation Xrotation
                        JOINT RightHandRing4
                        {
                          OFFSET -2.654903 -4e-06 4e-06
                          CHANNELS 3 Zrotation Yrotation Xrotation
                          JOINT RightHandRingEnd
                          {
                            OFFSET -1.933568 0.077527 -5.2e-05
                            CHANNELS 3 Zrotation Yrotation Xrotation
                          }
                        }
                      }
                    }
                  }
                  JOINT RightHandPinky1
                  {
                    OFFSET -2.866425 -0.342796 -1.584145
                    CHANNELS 3 Zrotation Yrotation Xrotation
                    JOINT RightHandPinky2
                    {
                      OFFSET -5.091371 -1.332055 -1.772385
                      CHANNELS 3 Zrotation Yrotation Xrotation
                      JOINT RightHandPinky3
                      {
                        OFFSET -3.062664 -4e-06 1e-06
                        CHANNELS 3 Zrotation Yrotation Xrotation
                        JOINT RightHandPinky4
                        {
                          OFFSET -1.546529 4e-06 -2e-06
                          CHANNELS 3 Zrotation Yrotation Xrotation
                          JOINT RightHandPinkyEnd
                          {
                            OFFSET -1.945119 -0.157718 0.057211
                            CHANNELS 3 Zrotation Yrotation Xrotation
                          }
                        }
                      }
                    }
                  }
                }
              }
            }
          }
        }
      }
    }
    JOINT LeftLeg
    {
      OFFSET 10.043214 -8.434526 2.595655
      CHANNELS 3 Zrotation Yrotation Xrotation
      JOINT LeftShin
      {
        OFFSET -1e-06 -43.221752 -0.802913
        CHANNELS 3 Zrotation Yrotation Xrotation
        JOINT LeftFoot
        {
          OFFSET 1e-06 -42.155094 -3.481523
          CHANNELS 3 Zrotation Yrotation Xrotation
          JOINT LeftToeBase
          {
            OFFSET 0.0 -5.059472 13.231529
            CHANNELS 3 Zrotation Yrotation Xrotation
            JOINT LeftToeEnd
            {
              OFFSET -0.009607 -1.647619 6.513017
              CHANNELS 3 Zrotation Yrotation Xrotation
            }
          }
        }
      }
    }
    JOINT RightLeg
    {
      OFFSET -10.047278 -8.29526 2.620317
      CHANNELS 3 Zrotation Yrotation Xrotation
      JOINT RightShin
      {
        OFFSET 1e-06 -43.362206 -0.805556
        CHANNELS 3 Zrotation Yrotation Xrotation
        JOINT RightFoot
        {
          OFFSET 2e-06 -42.117393 -3.478398
          CHANNELS 3 Zrotation Yrotation Xrotation
          JOINT RightToeBase
          {
            OFFSET -0.0 -5.079609 13.284196
            CHANNELS 3 Zrotation Yrotation Xrotation
            JOINT RightToeEnd
            {
              OFFSET 0.009532 -1.634378 6.460591
              CHANNELS 3 Zrotation Yrotation Xrotation
            }
          }
        }
      }
    }
  }
}
MOTION
Frames: 4
Frame Time: 0.03333333333333333
0.0 0.0 0.0 0.0 -0.0 0.0 -10.084229 54.943893 464.208801 -38.745281 55.071377 -50.607372 1.478088 -1.682829 15.374175 -0.337239 -3.73938 1.281408 -1.014573 -5.412014 21.519039 20.935366 -6.806446 11.99638 -4.554778 -13.887362 -3.292604 5.072754 -12.605458 -3.589939 7.6e-05 -2.3e-05 5e-06 -0.033366 -0.071006 -0.042497 0.730962 -3.652784 -10.322566 -0.794459 3.499211 -10.311039 7.722053 -24.562407 14.823128 -22.121059 -31.972216 13.943576 0.757752 -61.248589 2.013211 7.199275 -2.076812 25.825308 -5.882106 9.861286 0.70259 -10.936872 -0.360575 7.156204 1e-06 8.774826 -0.0 -17.161425 18.252781 5.792991 -1.844032 2.498504 -2.507278 -10.163603 4.678945 4.621109 -20.976027 -4e-06 2e-06 -21.226292 2.451698 -3.594 -0.0 -6e-06 -0.0 -1.362681 2.240798 -0.746323 -21.334917 0.584909 3.008323 -13.821218 -3e-06 2e-06 -23.887175 -0.249079 -0.839483 -59.008373 2.282452 -0.785332 -0.294025 1.679688 0.833256 -14.21821 0.093215 1.30058 -34.212051 -0.287564 0.96717 -20.033216 0.964536 1.212844 0.0 -0.0 -0.0 -3.440389 0.788233 0.501655 -15.928189 -3.167311 2.999707 -6.338826 -2e-06 1e-06 -18.123447 3.648184 -4.905671 -5e-06 -0.0 -2e-06 -2.361639 13.791718 12.406212 16.885178 18.404539 -34.688351 1.486806 48.860203 0.946548 -14.095586 -5.831958 -27.315674 2.243543 -5.255037 -3.180159 14.282894 -0.826597 6.952503 -0.0 -12.690605 -2e-06 12.475821 -17.390043 3.824187 1.665667 -1.955923 -2.8783 4.727801 -4.170589 4.993927 11.020528 2e-06 -3e-06 12.109056 -3.735718 -2.866789 2e-06 0.0 1e-06 1.291986 -1.92855 -1.49809 14.800132 0.567466 3.865608 14.242577 -1.341738 -6.660662 19.631971 0.143923 -0.648248 47.290337 -1.095528 -6.214765 0.353029 -1.511151 -0.031939 20.222795 3.684306 2.316629 18.787279 3e-06 -1e-06 10.751633 -0.47987 1.397906 -0.0 -1e-06 -0.0 3.273808 0.305945 -0.58011 21.486816 11.830374 2.266131 8.16293 0.0 -2e-06 18.39909 -3.798988 -4.940579 3e-06 1e-06 -2e-06 9.667782 5.938689 -37.96735 0.807679 0.435469 135.666855 10.503855 -29.042337 -31.057646 1.636418 -1.43264 -12.757312 -1e-06 -0.0 3e-06 -20.805702 -2.21387 -47.859402 3.202619 1.687926 73.071075 15.945814 -6.329338 10.965623 -1.744037 0.83925 0.617496 1e-06 1e-06 -1e-06 
0.0 0.0 0.0 0.0 -0.0 0.0 -9.122364 61.118603 472.785858 -35.541992 57.066906 -46.885826 1.686939 -1.963507 14.517871 -0.403957 -4.16412 0.937537 -0.860856 -5.757895 20.883518 19.199982 -6.276143 11.902294 -4.40904 -13.57324 -3.250973 4.893321 -13.025781 -4.399722 7.7e-05 -2.3e-05 6e-06 -0.098362 0.104441 -0.051892 0.658477 -3.501497 -10.418194 -0.853134 3.70016 -10.399404 5.516619 -23.024523 15.77922 -24.739738 -30.751602 12.981343 1.049212 -60.031593 1.337109 8.094591 -1.637945 22.759382 -5.882108 9.86129 0.702592 -10.936878 -0.360573 7.156207 1e-06 8.774828 2e-06 -16.381815 18.356176 5.910355 -1.844032 2.498504 -2.507278 -10.163604 4.678945 4.621111 -20.976038 -6e-06 5e-06 -21.226299 2.451695 -3.593999 1e-06 -6e-06 -2e-06 -1.362683 2.240799 -0.746323 -21.334929 0.584908 3.008324 -13.821223 -4e-06 2e-06 -23.887184 -0.249082 -0.839481 -58.398376 2.279593 -0.788663 -0.294025 1.679688 0.833257 -14.218215 0.093213 1.30058 -34.212067 -0.287568 0.967173 -20.033222 0.964535 1.212845 0.0 0.0 0.0 -3.440391 0.788233 0.501656 -15.928192 -3.167312 2.999707 -6.338832 -2e-06 1e-06 -18.123457 3.648181 -4.90567 -4e-06 0.0 -2e-06 -0.216573 11.929763 13.946728 21.51869 15.815648 -30.267626 0.921031 51.859402 1.115415 -12.283092 -5.703825 -21.899817 2.243544 -5.255037 -3.180156 14.282896 -0.826601 6.952505 1e-06 -12.690605 1e-06 13.148951 -17.211943 3.687577 1.665667 -1.955922 -2.878299 4.727802 -4.17059 4.993926 11.020533 -1e-06 -3e-06 12.109057 -3.73572 -2.866786 1e-06 -1e-06 -1e-06 1.291987 -1.92855 -1.498089 14.800132 0.567462 3.865607 14.242578 -1.341742 -6.660659 19.631973 0.143922 -0.64825 47.698578 -0.928001 -6.050662 0.35303 -1.511151 -0.031942 20.222797 3.684302 2.316628 18.787279 -1e-06 -4e-06 10.751634 -0.479874 1.397903 -1e-06 2e-06 1e-06 3.273808 0.305946 -0.580111 21.486818 11.830372 2.26613 8.16293 -2e-06 -2e-06 18.39909 -3.798989 -4.940581 3e-06 -0.0 -1e-06 15.349454 6.697412 -32.00256 0.188195 0.17722 127.957001 7.928013 -29.386431 -25.605467 1.834509 -1.427417 -14.834811 -1e-06 -0.0 2e-06 -19.51342 -6.677403 -45.166992 2.78801 1.729695 72.61602 16.93388 -4.854476 13.92281 -1.573226 0.791351 0.327978 -1e-06 1e-06 -0.0 
0.0 0.0 0.0 0.0 -0.0 0.0 -7.886688 66.352379 480.655151 -29.868076 57.053524 -40.203297 1.590249 -1.85781 13.436521 -0.36699 -4.194902 0.337025 -0.736829 -6.256201 19.564827 16.918823 -5.693184 12.124233 -4.297 -12.797873 -3.186354 4.540629 -12.836375 -4.989973 7.6e-05 -2.2e-05 6e-06 -0.149592 0.286039 -0.056252 0.599078 -3.335409 -10.488585 -0.898775 3.900904 -10.45758 2.842502 -21.325893 16.688486 -28.850698 -26.587385 12.362026 0.730157 -61.501225 1.45079 9.127911 -1.433614 18.448795 -5.882109 9.86129 0.702591 -10.936875 -0.360573 7.156206 1e-06 8.774831 1e-06 -15.267155 18.18845 6.216726 -1.844033 2.498503 -2.50728 -10.163604 4.678949 4.62111 -20.976034 -3e-06 -0.0 -21.226295 2.451697 -3.594004 1e-06 -6e-06 -1e-06 -1.362684 2.240799 -0.746323 -21.334921 0.58491 3.008324 -13.821218 -2e-06 1e-06 -23.887182 -0.249079 -0.839484 -57.819279 2.285284 -0.64157 -0.294024 1.679687 0.833257 -14.218215 0.093216 1.300581 -34.212067 -0.287562 0.967168 -20.033226 0.964537 1.212842 0.0 0.0 -0.0 -3.440389 0.788234 0.501656 -15.928192 -3.16731 2.999708 -6.338829 -1e-06 0.0 -18.123453 3.648184 -4.905674 -4e-06 0.0 -3e-06 1.185136 10.512835 14.921911 28.738411 14.690936 -28.921658 2.189493 57.593285 1.974771 -13.054081 -5.822125 -20.856045 2.243543 -5.255038 -3.180161 14.282896 -0.826595 6.952505 -4e-06 -12.690609 1e-06 13.68837 -17.181511 3.561153 1.665668 -1.955922 -2.8783 4.727799 -4.170589 4.993925 11.020531 2e-06 -3e-06 12.109058 -3.735717 -2.866788 2e-06 0.0 -1e-06 1.291987 -1.92855 -1.498089 14.800132 0.567468 3.865606 14.242577 -1.341735 -6.660663 19.631975 0.143927 -0.648249 47.908375 -1.005849 -6.177958 0.353029 -1.511151 -0.03194 20.222801 3.684313 2.316629 18.787281 6e-06 -2e-06 10.751631 -0.479866 1.397906 -0.0 0.0 1e-06 3.273808 0.305947 -0.580112 21.486822 11.830378 2.26613 8.162928 2e-06 -0.0 18.39909 -3.798984 -4.940577 3e-06 -1e-06 0.0 18.294762 8.628428 -28.175856 0.011288 0.118163 121.52359 5.917609 -24.980839 -21.698784 1.857416 -1.398977 -15.072229 -1e-06 0.0 2e-06 -18.88036 -9.77055 -41.21896 2.00305 1.899138 61.245079 16.842495 -9.608525 13.900907 -1.560096 0.809935 0.576607 0.0 0.0 -1e-06 
0.0 0.0 0.0 0.0 -0.0 0.0 -6.567755 70.448914 487.587799 -21.993073 55.709797 -31.285925 0.954036 -1.506685 12.306256 -0.408424 -3.981371 -0.340279 -0.949703 -6.154852 17.885853 14.690323 -5.009681 12.265197 -4.172844 -12.014236 -3.210749 3.758668 -12.31788 -5.943017 7.7e-05 -2.1e-05 6e-06 -0.117387 0.31587 -0.067823 0.646796 -3.290722 -10.465546 -0.88473 3.91866 -10.465418 0.609548 -19.549053 17.774494 -32.920696 -21.794001 11.564979 -0.485997 -62.657661 2.037329 10.976436 -1.566062 13.841433 -5.882106 9.861281 0.702589 -10.936871 -0.360573 7.156203 1e-06 8.774822 -1e-06 -14.686008 18.034788 6.364396 -1.844032 2.498504 -2.507279 -10.1636 4.678944 4.621109 -20.976023 -4e-06 1e-06 -21.226288 2.451696 -3.594 -0.0 -5e-06 -1e-06 -1.362681 2.240796 -0.746323 -21.334913 0.584911 3.008322 -13.821213 -3e-06 2e-06 -23.887167 -0.249078 -0.839484 -57.905586 2.47869 -0.657193 -0.294024 1.679685 0.833257 -14.218209 0.093216 1.300579 -34.212051 -0.287562 0.96717 -20.033215 0.964536 1.212843 0.0 1e-06 2e-06 -3.440387 0.788233 0.501655 -15.928187 -3.167307 2.999709 -6.338829 -0.0 1e-06 -18.123449 3.648182 -4.905669 -5e-06 -1e-06 -3e-06 1.381563 9.202973 15.658784 37.719231 14.107956 -26.123617 2.871577 63.292442 2.071563 -14.689956 -6.993325 -20.51749 2.243543 -5.255037 -3.180158 14.282888 -0.826597 6.952501 -0.0 -12.690603 1e-06 14.125535 -17.45277 3.591842 1.665667 -1.955922 -2.878299 4.727798 -4.170588 4.993925 11.020526 1e-06 -1e-06 12.109053 -3.735717 -2.866786 0.0 -0.0 -2e-06 1.291986 -1.928549 -1.498091 14.800125 0.567466 3.865607 14.242574 -1.341738 -6.660659 19.631968 0.143926 -0.648247 48.856617 -0.936469 -6.174759 0.353028 -1.511151 -0.03194 20.22279 3.684307 2.316628 18.787273 5e-06 -3e-06 10.751629 -0.479869 1.397906 -0.0 1e-06 0.0 3.273805 0.305946 -0.580111 21.486809 11.83037 2.266131 8.162928 2e-06 -3e-06 18.399086 -3.798987 -4.940577 2e-06 -0.0 -1e-06 18.649746 10.148622 -25.948055 -0.195456 -0.05383 116.600441 1.474529 -21.236359 -18.501139 1.766484 -1.440966 -11.866484 -0.0 -1e-06 1e-06 -18.842518 -14.066531 -37.514328 1.246992 2.034758 44.365067 17.810705 -15.190866 15.765147 -1.570693 0.955706 0.67227 0.0 -1e-06 -1e-06 
